<?xml version="1.0" encoding="UTF-8"?>
<svg id="Layer_2" data-name="Layer 2" xmlns="http://www.w3.org/2000/svg" viewBox="0 0 686.2 155.23">
  <defs>
    <style>
      .cls-1, .cls-2 {
        stroke-width: 0px;
      }

      .cls-2 {
        fill: #5fad56;
      }
    </style>
  </defs>
  <g id="Layer_1-2" data-name="Layer 1">
    <g>
      <g>
        <path class="cls-1" d="M219.52,155.23c-11.3,0-21.12-1.76-29.45-5.29-8.33-3.53-14.85-8.66-19.55-15.38s-7.25-14.9-7.64-24.5h25.77c.46,5.1,2.06,9.34,4.8,12.74,2.74,3.4,6.37,5.93,10.88,7.6,4.51,1.67,9.51,2.5,14.99,2.5s10.83-.88,15.24-2.65,7.86-4.23,10.34-7.4c2.48-3.17,3.72-6.84,3.72-11.02,0-3.79-1.09-6.93-3.28-9.41-2.19-2.48-5.26-4.59-9.21-6.32-3.95-1.73-8.58-3.25-13.87-4.56l-16.56-4.31c-12.22-3.13-21.74-7.87-28.57-14.21-6.83-6.34-10.24-14.67-10.24-24.99,0-8.62,2.32-16.17,6.96-22.64,4.64-6.47,10.98-11.48,19.01-15.04s17.15-5.34,27.34-5.34,19.5,1.8,27.34,5.39c7.84,3.59,13.97,8.56,18.38,14.9,4.41,6.34,6.71,13.56,6.91,21.66h-25.38c-.65-6.27-3.45-11.12-8.38-14.55-4.93-3.43-11.35-5.15-19.26-5.15-5.49,0-10.21.83-14.16,2.5-3.95,1.67-6.99,3.94-9.11,6.81-2.12,2.88-3.19,6.17-3.19,9.9,0,4.05,1.26,7.38,3.77,10,2.51,2.61,5.68,4.7,9.51,6.27,3.82,1.57,7.69,2.84,11.61,3.82l13.62,3.53c5.42,1.31,10.68,3.04,15.78,5.2,5.1,2.16,9.69,4.88,13.77,8.18,4.08,3.3,7.33,7.3,9.75,12.01,2.42,4.71,3.63,10.23,3.63,16.56,0,8.56-2.19,16.09-6.57,22.59-4.38,6.5-10.68,11.56-18.91,15.19-8.23,3.63-18.16,5.44-29.79,5.44Z"/>
        <path class="cls-1" d="M297.63,17.35h25.48v104.76c0,3.99.85,6.91,2.55,8.77,1.7,1.86,4.51,2.79,8.43,2.79,1.11,0,2.63-.15,4.56-.44,1.93-.29,3.48-.57,4.66-.83l4.02,19.7c-2.81.85-5.67,1.45-8.58,1.81-2.91.36-5.73.54-8.48.54-10.52,0-18.59-2.61-24.21-7.84-5.62-5.23-8.43-12.67-8.43-22.34V17.35ZM344.28,43.41v19.99h-34.3v-19.99h34.3Z"/>
        <path class="cls-1" d="M410.92,155.23c-11.04,0-20.53-2.32-28.47-6.96-7.94-4.64-14.05-11.17-18.33-19.6-4.28-8.43-6.42-18.36-6.42-29.79s2.11-21.2,6.32-29.69c4.21-8.49,10.19-15.14,17.93-19.94,7.74-4.8,16.84-7.2,27.29-7.2,6.66,0,13.02,1.08,19.06,3.23,6.04,2.16,11.4,5.49,16.07,10,4.67,4.51,8.33,10.24,10.98,17.2,2.65,6.96,3.97,15.24,3.97,24.84v8.04h-89.57v-17.35h76.93l-11.96,5.1c0-6.14-.95-11.55-2.84-16.22-1.9-4.67-4.72-8.31-8.48-10.93-3.76-2.61-8.44-3.92-14.06-3.92s-10.39,1.32-14.31,3.97-6.91,6.17-8.97,10.58c-2.06,4.41-3.09,9.33-3.09,14.75v11.96c0,6.93,1.18,12.77,3.53,17.54,2.35,4.77,5.65,8.36,9.9,10.78,4.25,2.42,9.18,3.63,14.8,3.63,3.72,0,7.11-.54,10.14-1.62s5.67-2.68,7.89-4.8c2.22-2.12,3.89-4.72,5-7.79l23.42,4.8c-1.76,5.88-4.77,11.03-9.02,15.44-4.25,4.41-9.55,7.84-15.92,10.29-6.37,2.45-13.64,3.68-21.81,3.68Z"/>
        <path class="cls-1" d="M506.67,6.96v146.02h-25.48V6.96h25.48Z"/>
        <path class="cls-1" d="M546.45,27.93c-4.05,0-7.53-1.37-10.44-4.12-2.91-2.74-4.36-6.01-4.36-9.8s1.45-7.23,4.36-9.95c2.91-2.71,6.39-4.07,10.44-4.07s7.63,1.36,10.54,4.07c2.91,2.71,4.36,6,4.36,9.85s-1.45,7.15-4.36,9.9c-2.91,2.74-6.42,4.12-10.54,4.12ZM533.71,152.98V43.41h25.48v109.57h-25.48Z"/>
        <path class="cls-1" d="M633.77,155.23c-10.65,0-19.89-2.37-27.73-7.11-7.84-4.74-13.9-11.33-18.18-19.8-4.28-8.46-6.42-18.31-6.42-29.55s2.14-21.31,6.42-29.84c4.28-8.53,10.34-15.14,18.18-19.84s17.08-7.06,27.73-7.06,19.99,2.35,27.83,7.06c7.84,4.7,13.9,11.32,18.18,19.84,4.28,8.53,6.42,18.47,6.42,29.84s-2.14,21.09-6.42,29.55c-4.28,8.46-10.34,15.06-18.18,19.8-7.84,4.74-17.12,7.11-27.83,7.11ZM633.77,134.56c5.94,0,10.89-1.6,14.85-4.8,3.95-3.2,6.89-7.51,8.82-12.94,1.93-5.42,2.89-11.47,2.89-18.13s-.96-12.8-2.89-18.23c-1.93-5.42-4.87-9.73-8.82-12.94-3.95-3.2-8.9-4.8-14.85-4.8s-10.86,1.6-14.75,4.8c-3.89,3.2-6.8,7.5-8.72,12.89-1.93,5.39-2.89,11.48-2.89,18.28s.96,12.71,2.89,18.13c1.93,5.42,4.83,9.73,8.72,12.94,3.89,3.2,8.8,4.8,14.75,4.8Z"/>
      </g>
      <circle class="cls-2" cx="76.27" cy="78.56" r="76.27"/>
    </g>
  </g>
</svg>